<svg xmlns="http://www.w3.org/2000/svg" viewBox="0 0 563.4 100.4" fill="none">
  <g id="icon" transform="translate(0,4.2) scale(1.586) translate(-9,-21)" stroke-width="10">
    <path id="ringLeft" d="M14 50 a24 24 0 1 0 48 0 a24 24 0 1 0 -48 0" stroke="#FF8A5B"></path>
    <path id="ringRight" d="M38 50 a24 24 0 1 0 48 0 a24 24 0 1 0 -48 0" stroke="#13CFC4"></path>
    <path id="weave" d="M42.17 26.36 A24 24 0 0 1 56.38 34.57" stroke="#FF8A5B" stroke-linecap="round"></path>
  </g>
  <g id="wordmark" transform="translate(160,0) translate(-6.9,74)">
    <path id="loop" d="M6.90-74L20.90-74L20.90 0L6.90 0L6.90-74ZM59.30 0.90Q51.30 0.90 44.90-2.65Q38.50-6.20 34.85-12.70Q31.20-19.20 31.20-27.70L31.20-27.70Q31.20-36.20 34.95-42.70Q38.70-49.20 45.20-52.75Q51.70-56.30 59.70-56.30L59.70-56.30Q67.70-56.30 74.20-52.75Q80.70-49.20 84.45-42.70Q88.20-36.20 88.20-27.70L88.20-27.70Q88.20-19.20 84.35-12.70Q80.50-6.20 73.95-2.65Q67.40 0.90 59.30 0.90L59.30 0.90ZM59.30-11.30Q63.10-11.30 66.45-13.15Q69.80-15 71.80-18.70Q73.80-22.40 73.80-27.70L73.80-27.70Q73.80-35.60 69.65-39.85Q65.50-44.10 59.50-44.10L59.50-44.10Q53.50-44.10 49.45-39.85Q45.40-35.60 45.40-27.70L45.40-27.70Q45.40-19.80 49.35-15.55Q53.30-11.30 59.30-11.30L59.30-11.30ZM123.10 0.90Q115.10 0.90 108.70-2.65Q102.30-6.20 98.65-12.70Q95.00-19.20 95.00-27.70L95.00-27.70Q95.00-36.20 98.75-42.70Q102.50-49.20 109.00-52.75Q115.50-56.30 123.50-56.30L123.50-56.30Q131.50-56.30 138-52.75Q144.50-49.20 148.25-42.70Q152-36.20 152-27.70L152-27.70Q152-19.20 148.15-12.70Q144.30-6.20 137.75-2.65Q131.20 0.90 123.10 0.90L123.10 0.90ZM123.10-11.30Q126.90-11.30 130.25-13.15Q133.60-15 135.60-18.70Q137.60-22.40 137.60-27.70L137.60-27.70Q137.60-35.60 133.45-39.85Q129.30-44.10 123.30-44.10L123.30-44.10Q117.30-44.10 113.25-39.85Q109.20-35.60 109.20-27.70L109.20-27.70Q109.20-19.80 113.15-15.55Q117.10-11.30 123.10-11.30L123.10-11.30ZM176.30-47.40Q179-51.20 183.75-53.75Q188.50-56.30 194.60-56.30L194.60-56.30Q201.70-56.30 207.45-52.80Q213.20-49.30 216.55-42.85Q219.90-36.40 219.90-27.90L219.90-27.90Q219.90-19.40 216.55-12.85Q213.20-6.30 207.45-2.70Q201.70 0.90 194.60 0.90L194.60 0.90Q188.50 0.90 183.85-1.60Q179.20-4.10 176.30-7.90L176.30-7.90L176.30 26.40L162.30 26.40L162.30-55.40L176.30-55.40L176.30-47.40ZM205.60-27.90Q205.60-32.90 203.55-36.55Q201.50-40.20 198.15-42.10Q194.80-44 190.90-44L190.90-44Q187.10-44 183.75-42.05Q180.40-40.10 178.35-36.40Q176.30-32.70 176.30-27.70L176.30-27.70Q176.30-22.70 178.35-19Q180.40-15.30 183.75-13.35Q187.10-11.40 190.90-11.40L190.90-11.40Q194.80-11.40 198.15-13.40Q201.50-15.40 203.55-19.10Q205.60-22.80 205.60-27.90L205.60-27.90Z" fill="#1A1D24"></path>
    <path id="hyphen" d="M230.30-41.60L272.70-41.60L272.70-29.80L230.30-29.80L230.30-41.60Z" fill="#FF8A5B"></path>
    <path id="ad" d="M284.80-27.90Q284.80-36.30 288.15-42.80Q291.50-49.30 297.25-52.80Q303-56.30 310.10-56.30L310.10-56.30Q316.30-56.30 320.95-53.80Q325.60-51.30 328.40-47.50L328.40-47.50L328.40-55.40L342.50-55.40L342.50 0L328.40 0L328.40-8.10Q325.70-4.20 320.95-1.65Q316.20 0.90 310 0.90L310 0.90Q303 0.90 297.25-2.70Q291.50-6.30 288.15-12.85Q284.80-19.40 284.80-27.90L284.80-27.90ZM328.40-27.70Q328.40-32.80 326.40-36.45Q324.40-40.10 321-42.05Q317.60-44 313.70-44L313.70-44Q309.80-44 306.50-42.10Q303.20-40.20 301.15-36.55Q299.10-32.90 299.10-27.90L299.10-27.90Q299.10-22.90 301.15-19.15Q303.20-15.40 306.55-13.40Q309.90-11.40 313.70-11.40L313.70-11.40Q317.60-11.40 321-13.35Q324.40-15.30 326.40-18.95Q328.40-22.60 328.40-27.70L328.40-27.70ZM352.60-27.90Q352.60-36.30 355.95-42.80Q359.30-49.30 365.10-52.80Q370.90-56.30 378-56.30L378-56.30Q383.40-56.30 388.30-53.95Q393.20-51.60 396.10-47.70L396.10-47.70L396.10-74L410.30-74L410.30 0L396.10 0L396.10-8.20Q393.50-4.10 388.80-1.60Q384.10 0.90 377.90 0.90L377.90 0.90Q370.90 0.90 365.10-2.70Q359.30-6.30 355.95-12.85Q352.60-19.40 352.60-27.90L352.60-27.90ZM396.20-27.70Q396.20-32.80 394.20-36.45Q392.20-40.10 388.80-42.05Q385.40-44 381.50-44L381.50-44Q377.60-44 374.30-42.10Q371-40.20 368.95-36.55Q366.90-32.90 366.90-27.90L366.90-27.90Q366.90-22.90 368.95-19.15Q371-15.40 374.35-13.40Q377.70-11.40 381.50-11.40L381.50-11.40Q385.40-11.40 388.80-13.35Q392.20-15.30 394.20-18.95Q396.20-22.60 396.20-27.70L396.20-27.70Z" fill="#1A1D24"></path>
  </g>
</svg>